<svg xmlns="http://www.w3.org/2000/svg" width="219" height="100" viewBox="0 0 219 100">
  <g id="그룹_44" data-name="그룹 44" transform="translate(-18 -197)">
    <rect id="사각형_56" data-name="사각형 56" width="219" height="100" transform="translate(18 197)" fill="#333"/>
    <path id="패스_28" data-name="패스 28" d="M15.444-38.34a26.476,26.476,0,0,1,5.886-.7q2.808,0,4.806.162v32.4a11.009,11.009,0,0,1,2.97.918V-1.3A17.336,17.336,0,0,1,20.9.432,3.073,3.073,0,0,1,19.845-.54a2.7,2.7,0,0,1-.567-1.35A10.3,10.3,0,0,1,16.2-.243a11.029,11.029,0,0,1-3.726.675q-5.832,0-8.451-3.159T1.4-13.068q0-8.154,4-11.448a13.069,13.069,0,0,1,8.64-2.916,19.524,19.524,0,0,1,4.536.54v-5.346A8.012,8.012,0,0,1,14.9-34.182ZM13.608-5.076a6.827,6.827,0,0,0,4.968-1.836V-21.384a19.771,19.771,0,0,0-4.7-.54,3.744,3.744,0,0,0-3.591,2.187A14.985,14.985,0,0,0,9.18-13.2q0,4.347,1.08,6.237A3.593,3.593,0,0,0,13.608-5.076ZM32.454-23q0-.81.054-1.728a22.459,22.459,0,0,1,10.8-2.7q5.778,0,8.289,2.187t2.511,7.263v11.5a12.148,12.148,0,0,1,2.97.918v4.7a19.052,19.052,0,0,1-7.884,1.3,19.878,19.878,0,0,1-.918-3.4q-2.322,3.4-8.424,3.4a9.43,9.43,0,0,1-6.183-2.106A7.014,7.014,0,0,1,31.1-7.4a7.139,7.139,0,0,1,2.4-5.7q2.4-2.079,7.155-2.079h5.886v-2.592q0-4.212-4.482-4.212a9.781,9.781,0,0,0-2.754.324,10.326,10.326,0,0,1-.648,3.51H33.372A11.144,11.144,0,0,1,32.454-23Zm9.72,17.928A5.91,5.91,0,0,0,46.548-6.7v-4.428h-3.78q-3.888,0-3.888,2.97a3.05,3.05,0,0,0,.837,2.214A3.268,3.268,0,0,0,42.174-5.076ZM59.562-27a25.332,25.332,0,0,1,5.346-.648q2.376,0,3.942.108v2.7a11.573,11.573,0,0,1,3.24-1.836,9.8,9.8,0,0,1,3.51-.756q6.156,0,8.208,3.078a11.026,11.026,0,0,1,3.564-2.187,11.057,11.057,0,0,1,4.1-.891q5.94,0,7.992,2.673t2.052,10.017v8.748a7.26,7.26,0,0,1,2.97,1.836L103.95,0H91.53l-.54-4.158a6.372,6.372,0,0,1,2.97-1.836V-16.686q0-2.97-.81-3.942T89.937-21.6a7.069,7.069,0,0,0-4.563,1.782,36.88,36.88,0,0,1,.27,5.076v8.748a7.26,7.26,0,0,1,2.97,1.836L88.074,0H75.654l-.54-4.158a6.372,6.372,0,0,1,2.97-1.836V-16.686q0-2.97-.81-3.942T74.088-21.6a7.163,7.163,0,0,0-4.536,1.728V-5.994a7.26,7.26,0,0,1,2.97,1.836L71.982,0H59.562l-.54-4.158a6.372,6.372,0,0,1,2.97-1.836V-21.006a6.974,6.974,0,0,1-2.97-1.836Zm57.564,4.428q-3.564,0-3.564,2.106,0,2,3.726,2.97l4.266,1.134q6.588,1.728,6.588,7.614a8.513,8.513,0,0,1-2.835,6.615Q122.472.432,116.289.432T106.65-1.3q-.054-.594-.054-1.188a11.789,11.789,0,0,1,1.188-5.346h4.482a8.278,8.278,0,0,1,.918,2.7,11.273,11.273,0,0,0,3.078.324q4.752,0,4.752-2.7a1.82,1.82,0,0,0-.648-1.431,7.12,7.12,0,0,0-2.538-1.107l-4.266-1.242a11.594,11.594,0,0,1-5.13-2.727,7.186,7.186,0,0,1-1.836-5.346,7.086,7.086,0,0,1,2.862-5.805q2.862-2.268,8.181-2.268a22.92,22.92,0,0,1,8.991,1.566q.054.54.054,1.08A11.428,11.428,0,0,1,125.5-19.6h-4.428a7.711,7.711,0,0,1-.918-2.592A12.427,12.427,0,0,0,117.126-22.572Zm26.055,23q-6.4,0-9.477-3.4t-3.078-10.287q0-6.885,3.429-10.53t9.855-3.645q6.426,0,9.531,3.24t3.1,10.125q0,6.885-3.483,10.692T143.181.432ZM138.4-13.716q0,8.64,5.184,8.64A4.329,4.329,0,0,0,147.5-7.047q1.269-1.971,1.269-6.453,0-8.424-5.292-8.424a4.285,4.285,0,0,0-3.834,1.863Q138.4-18.2,138.4-13.716Z" transform="translate(48 267)" fill="#eee"/>
  </g>
</svg>
