<svg xmlns="http://www.w3.org/2000/svg" width="334" height="334" viewBox="0 0 334 334">
  <g id="그룹_22" data-name="그룹 22" transform="translate(-603 -380)">
    <path id="패스_1" data-name="패스 1" d="M20,0H234a20,20,0,0,1,20,20V234a20,20,0,0,1-20,20H20A20,20,0,0,1,0,234V20A20,20,0,0,1,20,0Z" transform="translate(606 422)" fill="#333"/>
    <path id="패스_2" data-name="패스 2" d="M52-39.6a15.243,15.243,0,0,1-11.2-4.6,15.243,15.243,0,0,1-4.6-11.2,15.576,15.576,0,0,1,4.6-11.3A15.08,15.08,0,0,1,52-71.4a15.407,15.407,0,0,1,11.3,4.7A15.407,15.407,0,0,1,68-55.4a15.08,15.08,0,0,1-4.7,11.2A15.576,15.576,0,0,1,52-39.6ZM2.2,121.4q-9.6,0-16-5T-20.2,102q0-19.4,32.8-29.8L34-28.6H62.8L43,64.2a35.373,35.373,0,0,0,15.4-9.6q5.8-6.4,9.8-19h8.4Q71.2,53.4,62,61.7A49,49,0,0,1,41.2,73l-3,14.4q-4,19.4-13.8,26.7A36.216,36.216,0,0,1,2.2,121.4Zm-4.6-15.6q3.4,0,6.6-4.6T9.2,88l1.2-5.8q-19.6,7.2-19.6,17a6.675,6.675,0,0,0,1.8,4.6A6.383,6.383,0,0,0-2.4,105.8ZM81.8-28.6h28.8L108-16.2a80.157,80.157,0,0,1,12.3-9.2,23.257,23.257,0,0,1,11.9-3.2,12.5,12.5,0,0,1,10.1,4.4A15.927,15.927,0,0,1,146-13.6a15.135,15.135,0,0,1-3.8,10.2Q138.4,1,131.6,1q-4.4,0-5.9-2.1a15.983,15.983,0,0,1-2.3-6.1,18.362,18.362,0,0,0-1.2-3.8,2.234,2.234,0,0,0-2.2-1.2,13.823,13.823,0,0,0-7.1,1.7,48.81,48.81,0,0,0-7.5,5.9l-16,76H60.6ZM158.6-36h28.8l-3.2,15a34.769,34.769,0,0,1,23.4-8.6q11.2,0,17.8,7.4T232,2a115.7,115.7,0,0,1-4.6,31.9,63.605,63.605,0,0,1-15.6,27.4q-11,11.3-29,11.3-12.8,0-17-7.2l-10.4,48.8-30.2,7.2Zm18,91.2q9.6,0,15.9-9a61.2,61.2,0,0,0,9.2-21.5,103.463,103.463,0,0,0,2.9-23.3q0-16.6-10-16.6a12.685,12.685,0,0,0-7.3,2.6,23.629,23.629,0,0,0-6.5,7.2L169,50.6Q170.6,55.2,176.6,55.2Z" transform="translate(700 522)" fill="#eee"/>
    <rect id="사각형_21" data-name="사각형 21" width="334" height="334" transform="translate(603 380)" fill="none"/>
  </g>
</svg>
