<svg xmlns="http://www.w3.org/2000/svg" width="100" height="100" viewBox="0 0 100 100">
  <g id="그룹_52" data-name="그룹 52" transform="translate(-2598 -3117)">
    <rect id="사각형_76" data-name="사각형 76" width="100" height="100" rx="20" transform="translate(2598 3117)" fill="#333"/>
    <path id="패스_29" data-name="패스 29" d="M25.74-63.9a44.127,44.127,0,0,1,9.81-1.17q4.68,0,8.01.27v54a18.348,18.348,0,0,1,4.95,1.53v7.11Q43.11.72,34.83.72A5.122,5.122,0,0,1,33.075-.9a4.5,4.5,0,0,1-.945-2.25A17.168,17.168,0,0,1,27-.405,18.382,18.382,0,0,1,20.79.72Q11.07.72,6.705-4.545T2.34-21.78Q2.34-35.37,9-40.86a21.782,21.782,0,0,1,14.4-4.86,32.54,32.54,0,0,1,7.56.9v-8.91a13.353,13.353,0,0,1-6.12-3.24ZM22.68-8.46a11.378,11.378,0,0,0,8.28-3.06V-35.64a32.953,32.953,0,0,0-7.83-.9A6.239,6.239,0,0,0,17.145-32.9Q15.3-29.25,15.3-22.005t1.8,10.4A5.988,5.988,0,0,0,22.68-8.46Z" transform="translate(2623 3199)" fill="#eee"/>
  </g>
</svg>
