<svg xmlns="http://www.w3.org/2000/svg" width="25.713" height="36" viewBox="0 0 25.713 36">
  <path id="Icon_simple-glassdoor" data-name="Icon simple-glassdoor" d="M25.716,30.858H5.145A5.14,5.14,0,0,0,10.284,36H25.713a5.142,5.142,0,0,0,5.142-5.142V9.738a.184.184,0,0,0-.186-.187H25.9a.187.187,0,0,0-.184.189V30.86ZM25.716,0a5.143,5.143,0,0,1,5.14,5.145H10.287V26.262a.189.189,0,0,1-.187.188H5.331a.188.188,0,0,1-.187-.187V5.142A5.143,5.143,0,0,1,10.284,0H25.715" transform="translate(-5.143)" fill="#333"/>
</svg>
