<svg xmlns="http://www.w3.org/2000/svg" width="39.999" height="40" viewBox="0 0 39.999 40">
  <path id="빼기_1" data-name="빼기 1" d="M-474.3-3677h-31.4a4.3,4.3,0,0,1-4.3-4.3v-31.4a4.3,4.3,0,0,1,4.3-4.3h31.4a4.3,4.3,0,0,1,4.3,4.3v31.4A4.3,4.3,0,0,1-474.3-3677Zm-20.322-33.727a1,1,0,0,0-.708.292l-3.535,3.536a1,1,0,0,0,0,1.414l8.485,8.485-8.485,8.485a.992.992,0,0,0-.293.707.992.992,0,0,0,.293.707l3.535,3.536a1,1,0,0,0,.708.293.994.994,0,0,0,.707-.293l12.728-12.728a.994.994,0,0,0,.293-.707.994.994,0,0,0-.293-.707l-12.728-12.729A1,1,0,0,0-494.621-3710.726Z" transform="translate(510 3717)" fill="#fff"/>
</svg>
