<svg xmlns="http://www.w3.org/2000/svg" width="40" height="40" viewBox="0 0 40 40">
  <path id="Icon_awesome-plus-square" data-name="Icon awesome-plus-square" d="M35.714,2.25H4.286A4.287,4.287,0,0,0,0,6.536V37.964A4.287,4.287,0,0,0,4.286,42.25H35.714A4.287,4.287,0,0,0,40,37.964V6.536A4.287,4.287,0,0,0,35.714,2.25Zm-2.857,22.5a1.075,1.075,0,0,1-1.071,1.071H23.571v8.214A1.075,1.075,0,0,1,22.5,35.107h-5a1.075,1.075,0,0,1-1.071-1.071V25.821H8.214A1.075,1.075,0,0,1,7.143,24.75v-5a1.075,1.075,0,0,1,1.071-1.071h8.214V10.464A1.075,1.075,0,0,1,17.5,9.393h5a1.075,1.075,0,0,1,1.071,1.071v8.214h8.214a1.075,1.075,0,0,1,1.071,1.071Z" transform="translate(0 -2.25)" fill="#fff"/>
</svg>
