<svg xmlns="http://www.w3.org/2000/svg" width="167" height="167" viewBox="0 0 167 167">
  <g id="그룹_21" data-name="그룹 21" transform="translate(-94 -580)">
    <path id="패스_15" data-name="패스 15" d="M10,0H117a10,10,0,0,1,10,10V117a10,10,0,0,1-10,10H10A10,10,0,0,1,0,117V10A10,10,0,0,1,10,0Z" transform="translate(96 602)" fill="#333"/>
    <path id="패스_14" data-name="패스 14" d="M15.9-55.5a7.621,7.621,0,0,1-5.6-2.3A7.622,7.622,0,0,1,8-63.4a7.788,7.788,0,0,1,2.3-5.65,7.54,7.54,0,0,1,5.6-2.35,7.7,7.7,0,0,1,5.65,2.35A7.7,7.7,0,0,1,23.9-63.4a7.54,7.54,0,0,1-2.35,5.6A7.788,7.788,0,0,1,15.9-55.5ZM-9,25a12.6,12.6,0,0,1-8-2.5,8.593,8.593,0,0,1-3.2-7.2Q-20.2,5.6-3.8.4L6.9-50H21.3L11.4-3.6a17.687,17.687,0,0,0,7.7-4.8A25.7,25.7,0,0,0,24-17.9h4.2Q25.5-9,20.9-4.85A24.5,24.5,0,0,1,10.5.8L9,8Q7,17.7,2.1,21.35A18.108,18.108,0,0,1-9,25Zm-2.3-7.8q1.7,0,3.3-2.3A18.2,18.2,0,0,0-5.5,8.3l.6-2.9q-9.8,3.6-9.8,8.5a3.337,3.337,0,0,0,.9,2.3A3.191,3.191,0,0,0-11.3,17.2ZM30.8-50H45.2l-1.3,6.2a40.079,40.079,0,0,1,6.15-4.6A11.629,11.629,0,0,1,56-50a6.249,6.249,0,0,1,5.05,2.2,7.963,7.963,0,0,1,1.85,5.3A7.567,7.567,0,0,1,61-37.4a6.629,6.629,0,0,1-5.3,2.2q-2.2,0-2.95-1.05A7.991,7.991,0,0,1,51.6-39.3a9.181,9.181,0,0,0-.6-1.9,1.117,1.117,0,0,0-1.1-.6,6.912,6.912,0,0,0-3.55.85A24.405,24.405,0,0,0,42.6-38l-8,38H20.2Zm38.4-3.7H83.6L82-46.2a17.384,17.384,0,0,1,11.7-4.3,11.328,11.328,0,0,1,8.9,3.7q3.3,3.7,3.3,12.1a57.85,57.85,0,0,1-2.3,15.95,31.8,31.8,0,0,1-7.8,13.7Q90.3.6,81.3.6,74.9.6,72.8-3L67.6,21.4,52.5,25Zm9,45.6q4.8,0,7.95-4.5a30.6,30.6,0,0,0,4.6-10.75A51.731,51.731,0,0,0,92.2-35q0-8.3-5-8.3A6.342,6.342,0,0,0,83.55-42a11.815,11.815,0,0,0-3.25,3.6l-5.9,28Q75.2-8.1,78.2-8.1Z" transform="translate(153 689)" fill="#eee"/>
    <g id="사각형_6" data-name="사각형 6" transform="translate(94 580)" fill="none" stroke="rgba(112,112,112,0)" stroke-width="1">
      <rect width="167" height="167" stroke="none"/>
      <rect x="0.5" y="0.5" width="166" height="166" fill="none"/>
    </g>
  </g>
</svg>
